<?xml version="1.0" encoding="UTF-8" standalone="no"?>
<!-- Created with Inkscape (http://www.inkscape.org/) -->

<svg
   xmlns:dc="http://purl.org/dc/elements/1.1/"
   xmlns:cc="http://creativecommons.org/ns#"
   xmlns:rdf="http://www.w3.org/1999/02/22-rdf-syntax-ns#"
   xmlns:svg="http://www.w3.org/2000/svg"
   xmlns="http://www.w3.org/2000/svg"
   xmlns:xlink="http://www.w3.org/1999/xlink"
   xmlns:sodipodi="http://sodipodi.sourceforge.net/DTD/sodipodi-0.dtd"
   xmlns:inkscape="http://www.inkscape.org/namespaces/inkscape"
   sodipodi:docname="induction.svg"
   inkscape:version="0.92.2 (unknown)"
   id="svg8"
   version="1.1"
   viewBox="0 0 993.06348 509.95026"
   height="509.95026mm"
   width="993.06348mm">
  <sodipodi:namedview
     inkscape:window-maximized="1"
     inkscape:window-y="30"
     inkscape:window-x="0"
     inkscape:window-height="1017"
     inkscape:window-width="1920"
     showgrid="false"
     inkscape:current-layer="layer1"
     inkscape:document-units="mm"
     inkscape:cy="818.66095"
     inkscape:cx="300.73095"
     inkscape:zoom="0.7"
     inkscape:pageshadow="2"
     inkscape:pageopacity="0.0"
     borderopacity="1.0"
     bordercolor="#666666"
     pagecolor="#ffffff"
     id="base" />
  <defs
     id="defs2">
    <linearGradient
       inkscape:collect="always"
       id="linearGradient27690">
      <stop
         style="stop-color:#b000ff;stop-opacity:1;"
         offset="0"
         id="stop27686" />
      <stop
         style="stop-color:#b000ff;stop-opacity:0;"
         offset="1"
         id="stop27688" />
    </linearGradient>
    <symbol
       id="barrier">
      <title
         id="title4184">barrier</title>
      <g
         id="g4190"
         stroke-miterlimit="10"
         style="stroke-miterlimit:10">
        <path
           id="path4186"
           d="M 0,39.6875 H 0.27887083 M 0,39.6875 h 23.018485 m 33.337765,0 H 79.375 m -0.278871,0 H 79.375"
           inkscape:connector-curvature="0"
           style="stroke-width:0.26458332" />
        <path
           id="path4188"
           d="M 23.018485,39.6875 H 56.35625 m -22.5044,-5.835385 11.670771,11.67077 m -11.670771,0 11.670771,-11.67077"
           inkscape:connector-curvature="0"
           style="stroke-width:0.26458332" />
      </g>
    </symbol>
    <symbol
       id="amplifier">
      <title
         id="title4135">amplifier</title>
      <g
         id="g4139"
         stroke-miterlimit="10"
         style="stroke-miterlimit:10">
        <path
           id="path4137"
           d="M 0,39.690146 H 0.27887083 M 0,39.690146 h 20.24036 m 38.89428,0 H 79.375 m -0.278871,0 H 79.375 M 20.24036,18.295937 59.134375,39.690146 20.240625,61.079062 Z m 0,0"
           inkscape:connector-curvature="0"
           style="stroke-width:0.26458332" />
      </g>
    </symbol>
    <symbol
       id="Extract">
      <title
         id="title3683">Extract</title>
      <desc
         id="desc3685">Removal of one or more specific sets of times from a set. (ISO)</desc>
      <path
         id="path3687"
         style="stroke-width:0.52916664"
         d="M 9.2604167,30.427083 19.84375,11.90625 30.427083,30.427083 Z"
         inkscape:connector-curvature="0" />
    </symbol>
    <symbol
       id="Merge">
      <title
         id="title3639">Merge</title>
      <desc
         id="desc3641">Combine two or more sets of items into one set. (ISO)</desc>
      <path
         id="path3643"
         style="stroke-width:0.52916664"
         d="M 9.2604167,9.2604167 H 30.427083 L 19.84375,27.78125 Z"
         inkscape:connector-curvature="0" />
    </symbol>
    <symbol
       id="Buffer_Small">
      <title
         id="title1752">Buffer Small</title>
      <path
         id="path1754"
         d="M 9.9778537,10.583333 16.592437,13.229167 9.9778537,15.875 Z"
         inkscape:connector-curvature="0"
         style="stroke-width:0.26458332" />
    </symbol>
    <symbol
       id="american_inductor">
      <title
         id="title4026">american_inductor</title>
      <g
         id="g4032"
         stroke-miterlimit="10"
         style="stroke-miterlimit:10">
        <path
           id="path4028"
           d="m -0.00529167,43.895962 h 0.27913542 m -0.27887083,0 H 17.456679 m 44.451058,0 h 17.461707 m -0.278871,0 h 0.278871"
           inkscape:connector-curvature="0"
           style="stroke-width:0.26458332" />
        <path
           id="path4030"
           d="m 16.896821,44.0944 c 0,-4.604544 2.553758,-8.334375 5.698331,-8.334375 3.144308,0 5.692775,3.729831 5.692775,8.334375 0,-4.604544 2.553758,-8.334375 5.698331,-8.334375 3.144573,0 5.692775,3.729831 5.692775,8.334375 0,-4.604544 2.548467,-8.334375 5.698332,-8.334375 3.144572,0 5.692775,3.729831 5.692775,8.334375 0,-4.604544 2.548466,-8.334375 5.698331,-8.334375 3.144573,0 5.692775,3.729831 5.692775,8.334375"
           inkscape:connector-curvature="0"
           style="stroke-width:0.26458332" />
      </g>
    </symbol>
    <symbol
       id="mixer">
      <title
         id="title4945">mixer</title>
      <g
         id="g4951"
         stroke-miterlimit="10"
         style="stroke-miterlimit:10">
        <path
           id="path4947"
           d="m 78.277773,39.718192 c 0,-21.308748 -17.272265,-38.5810128 -38.581013,-38.5810128 -21.308748,0 -38.5812767,17.2719998 -38.5812767,38.5810128 0,21.309012 17.2722647,38.581012 38.5812767,38.581012 21.309013,0 38.581013,-17.272 38.581013,-38.581012 z"
           inkscape:connector-curvature="0"
           style="stroke-width:0.26458332" />
        <path
           id="path4949"
           d="m 12.418483,12.398375 54.551792,54.551792 m 0,-54.551792 -54.551792,54.551792"
           inkscape:connector-curvature="0"
           style="stroke-width:0.26458332" />
      </g>
    </symbol>
    <symbol
       id="inductor">
      <title
         id="title4816">inductor</title>
      <g
         id="g4822"
         stroke-miterlimit="10"
         style="stroke-miterlimit:10">
        <path
           id="path4818"
           d="m -0.00449792,41.502012 h 0.27887084 m -0.27887084,0 H 23.013723 m 33.337235,0 h 23.017957 m -0.278871,0 h 0.278871"
           inkscape:connector-curvature="0"
           style="stroke-width:0.26458332" />
        <path
           id="path4820"
           d="m 22.457304,41.740137 c 0,-4.604543 2.291292,-8.334375 5.113338,-8.334375 2.821781,0 5.113337,3.729832 5.113337,8.334375 0,2.302405 -0.935037,4.167188 -2.083594,4.167188 -1.153848,0 -2.083593,-1.864783 -2.083593,-4.167188 0,-4.604543 2.286,-8.334375 5.113337,-8.334375 2.822046,0 5.108046,3.729832 5.108046,8.334375 0,2.302405 -0.929746,4.167188 -2.083594,4.167188 -1.148291,0 -2.083594,-1.864783 -2.083594,-4.167188 0,-4.604543 2.291292,-8.334375 5.113338,-8.334375 2.821781,0 5.113337,3.729832 5.113337,8.334375 0,2.302405 -0.935037,4.167188 -2.083593,4.167188 -1.148292,0 -2.083594,-1.864783 -2.083594,-4.167188 0,-4.604543 2.286,-8.334375 5.113602,-8.334375 2.821781,0 5.107781,3.729832 5.107781,8.334375 0,2.302405 -0.929746,4.167188 -2.078302,4.167188 -1.153583,0 -2.083594,-1.864783 -2.083594,-4.167188 0,-4.604543 2.286,-8.334375 5.108046,-8.334375 2.827338,0 5.113338,3.729832 5.113338,8.334375"
           inkscape:connector-curvature="0"
           style="stroke-width:0.26458332" />
      </g>
    </symbol>
    <symbol
       id="empty_source">
      <title
         id="title4438">empty_source</title>
      <g
         id="g4444"
         stroke-miterlimit="10"
         style="stroke-miterlimit:10">
        <path
           id="path4440"
           d="m -0.00529167,39.680885 h 0.27887084 m -0.27887084,0 H 23.012665 m 33.3375,0 h 23.017956 m -0.278871,0 h 0.278871"
           inkscape:connector-curvature="0"
           style="stroke-width:0.26458332" />
        <path
           id="path4442"
           d="m 39.679562,23.013194 c -9.203795,0 -16.66875,7.459133 -16.66875,16.663458 0,9.209088 7.46469,16.66875 16.66875,16.66875 9.203796,0 16.66875,-7.459398 16.66875,-16.66875 0,-9.20406 -7.464689,-16.663458 -16.66875,-16.663458 z"
           inkscape:connector-curvature="0"
           style="stroke-width:0.26458332" />
      </g>
    </symbol>
    <radialGradient
       inkscape:collect="always"
       xlink:href="#linearGradient27690"
       id="radialGradient27694"
       cx="-0.9989503"
       cy="-10.359955"
       fx="-0.9989503"
       fy="-10.359955"
       r="7.0812993"
       gradientUnits="userSpaceOnUse"
       gradientTransform="translate(130.42753,-9.621703)" />
  </defs>
  <metadata
     id="metadata5">
    <rdf:RDF>
      <cc:Work
         rdf:about="">
        <dc:format>image/svg+xml</dc:format>
        <dc:type
           rdf:resource="http://purl.org/dc/dcmitype/StillImage" />
        <dc:title></dc:title>
      </cc:Work>
    </rdf:RDF>
  </metadata>
  <g
     id="layer1"
     inkscape:groupmode="layer"
     inkscape:label="Layer 1"
     transform="translate(526.45085,216.1575)">
    <use
       transform="rotate(-90,-145.9799,276.14952)"
       height="100%"
       width="100%"
       y="0"
       x="0"
       xlink:href="#Buffer_Small"
       style="fill:#000000;fill-opacity:1;stroke:none;stroke-width:2"
       id="use18706" />
    <g
       transform="matrix(1.8804431,0,0,1.8804431,130.38445,-69.473868)"
       id="g19925">
      <g
         style="font-style:normal;font-variant:normal;font-weight:normal;font-stretch:normal;letter-spacing:normal;word-spacing:normal;text-anchor:start;fill:none;fill-opacity:1;fill-rule:evenodd;stroke:#000000;stroke-linecap:butt;stroke-linejoin:miter;stroke-miterlimit:10.43299961;stroke-dasharray:none;stroke-dashoffset:0;stroke-opacity:1"
         word-spacing="normal"
         letter-spacing="normal"
         font-size-adjust="none"
         font-stretch="normal"
         font-weight="normal"
         font-variant="normal"
         font-style="normal"
         stroke-miterlimit="10.433"
         xml:space="preserve"
         transform="matrix(0.3,0,0,-0.3,-52.5,222.75)"
         id="content"><path
           style="fill:#000000;stroke-width:0"
           inkscape:connector-curvature="0"
           id="path19920"
           d="m 490.75,448.64 -0.07,-0.06 -0.07,-0.07 -0.08,-0.07 -0.08,-0.07 -0.09,-0.08 -0.09,-0.08 -0.09,-0.09 -0.09,-0.09 -0.1,-0.09 -0.09,-0.09 -0.2,-0.19 -0.19,-0.19 -0.19,-0.21 -0.09,-0.1 -0.09,-0.1 -0.09,-0.1 -0.08,-0.11 -0.08,-0.1 -0.08,-0.1 -0.07,-0.1 -0.06,-0.1 -0.06,-0.1 -0.05,-0.1 -0.05,-0.1 -0.04,-0.09 -0.03,-0.1 -0.02,-0.09 -0.02,-0.09 v -0.08 c 0,-0.5 0.5,-1 1,-1 0.44,0 0.69,0.35 0.94,0.65 0.6,0.75 1.74,2.14 3.94,3.24 0.35,0.2 0.84,0.45 0.84,1.05 0,0.49 -0.34,0.74 -0.69,0.99 -1.1,0.75 -1.65,1.64 -2.05,2.84 -0.1,0.45 -0.3,1.1 -0.99,1.1 -0.7,0 -1,-0.65 -1,-1.05 0,-0.25 0.4,-1.84 1.2,-2.89 h -16.79 c -0.85,0 -1.74,0 -1.74,-0.99 0,-1 0.89,-1 1.74,-1 z" /><path
           style="fill:#000000;stroke-width:0"
           inkscape:connector-curvature="0"
           id="path19922"
           d="m 463.97,409.89 -0.05,-0.18 -0.04,-0.17 -0.04,-0.16 -0.05,-0.15 -0.04,-0.15 -0.05,-0.13 -0.04,-0.13 -0.06,-0.12 -0.05,-0.11 -0.06,-0.11 -0.06,-0.1 -0.08,-0.09 -0.07,-0.09 -0.09,-0.07 -0.09,-0.08 -0.11,-0.06 -0.11,-0.07 -0.13,-0.05 -0.13,-0.05 -0.15,-0.05 -0.16,-0.04 -0.09,-0.02 -0.09,-0.02 -0.09,-0.01 -0.1,-0.02 -0.1,-0.01 -0.1,-0.01 -0.11,-0.02 -0.12,-0.01 -0.11,-0.01 -0.13,-0.01 -0.12,-0.01 h -0.13 l -0.14,-0.01 -0.14,-0.01 h -0.14 l -0.15,-0.01 h -0.16 -0.16 -0.16 l -0.17,-0.01 h -0.18 -0.18 c -0.85,0 -1.35,0 -1.35,-0.99 0,-0.55 0.45,-0.55 1.35,-0.55 h 17.78 c 7.87,0 13.75,5.88 13.75,10.76 0,3.59 -2.89,6.47 -7.72,7.03 5.18,0.94 10.41,4.62 10.41,9.36 0,3.69 -3.29,6.87 -9.27,6.87 l -0.69,-1.54 c 4.38,0 5.42,-2.94 5.42,-5.13 0,-4.39 -4.28,-9.12 -10.35,-9.12 h -7.28 l -0.3,-1.09 h 9.42 c 4.78,0 5.73,-3.69 5.73,-5.83 0,-4.93 -4.44,-9.77 -10.32,-9.77 h -6.77 c -0.7,0 -0.8,0 -1.09,0.05 -0.5,0.05 -0.65,0.11 -0.65,0.5 0,0.15 0,0.25 0.25,1.15 l 3.43,13.9 0.3,1.09 3.09,12.36 c 0.45,1.74 0.55,1.89 2.69,1.89 h 6.43 l 0.69,1.54 h -16.73 c -0.95,0 -1.45,0 -1.45,-0.99 0,-0.55 0.45,-0.55 1.4,-0.55 0.1,0 1.04,0 1.89,-0.1 0.89,-0.1 1.34,-0.15 1.34,-0.8 0,-0.2 -0.05,-0.35 -0.2,-0.94 z" /></g>    </g>
    <g
       transform="translate(-488.37393,21.636356)"
       id="g20003">
      <g
         style="font-style:normal;font-variant:normal;font-weight:normal;font-stretch:normal;letter-spacing:normal;word-spacing:normal;text-anchor:start;fill:none;fill-opacity:1;fill-rule:evenodd;stroke:#000000;stroke-linecap:butt;stroke-linejoin:miter;stroke-miterlimit:10.43299961;stroke-dasharray:none;stroke-dashoffset:0;stroke-opacity:1"
         id="g20001"
         transform="matrix(0.3,0,0,-0.3,-52.5,222.75)"
         xml:space="preserve"
         stroke-miterlimit="10.433"
         font-style="normal"
         font-variant="normal"
         font-weight="normal"
         font-stretch="normal"
         font-size-adjust="none"
         letter-spacing="normal"
         word-spacing="normal"><path
           style="fill:#000000;stroke-width:0"
           inkscape:connector-curvature="0"
           d="m 474.63,436.19 0.04,0.16 0.04,0.16 0.04,0.15 0.04,0.14 0.04,0.14 0.05,0.12 0.04,0.13 0.05,0.11 0.06,0.11 0.06,0.1 0.06,0.1 0.07,0.09 0.08,0.08 0.09,0.08 0.09,0.08 0.11,0.06 0.11,0.07 0.13,0.05 0.14,0.06 0.15,0.05 0.16,0.04 0.09,0.02 0.09,0.02 0.09,0.01 0.1,0.02 0.1,0.02 0.11,0.01 0.11,0.01 0.11,0.02 0.12,0.01 0.12,0.01 0.13,0.01 0.13,0.01 0.14,0.01 h 0.14 l 0.14,0.01 h 0.15 l 0.16,0.01 h 0.16 0.16 l 0.18,0.01 h 0.17 0.18 c 1.2,0 1.6,0 1.6,0.95 0,0.59 -0.55,0.59 -0.75,0.59 h -13.2 c -0.35,0 -1,0 -1,-0.99 0,-0.55 0.45,-0.55 1.4,-0.55 2.09,0 3.43,0 3.43,-0.95 0,-0.25 0,-0.35 -0.09,-0.8 l -6.73,-26.84 c -0.45,-1.85 -0.6,-2.35 -4.53,-2.35 -1.15,0 -1.59,0 -1.59,-0.99 0,-0.55 0.59,-0.55 0.74,-0.55 h 13.2 c 0.4,0 1,0 1,0.95 0,0.59 -0.4,0.59 -1.5,0.59 -0.89,0 -1.14,0 -2.14,0.1 -1.04,0.1 -1.24,0.3 -1.24,0.85 0,0.4 0.1,0.8 0.2,1.15 z"
           id="path19999" /></g>    </g>
    <use
       transform="translate(231.31467,17.273773)"
       height="100%"
       width="100%"
       y="0"
       x="0"
       xlink:href="#mixer"
       style="fill:none;stroke:#000000;stroke-width:3px"
       id="use24321" />
    <circle
       r="159.29263"
       cy="53.639683"
       cx="270.51965"
       id="path24336"
       style="fill:none;fill-opacity:1;stroke:#000000;stroke-width:0.26458332;stroke-opacity:1" />
    <path
       inkscape:connector-curvature="0"
       id="path24338"
       d="M -408.6551,-216.1575 V 293.79275"
       style="fill:none;stroke:#000000;stroke-width:0.26458332px;stroke-linecap:butt;stroke-linejoin:miter;stroke-opacity:1" />
    <path
       inkscape:connector-curvature="0"
       id="path27227"
       d="M 412.1296,-19.447129 356.53755,-120.47501"
       style="fill:none;stroke:#000000;stroke-width:0.26458332px;stroke-linecap:butt;stroke-linejoin:miter;stroke-opacity:1" />
    <use
       transform="rotate(-119.80638,147.81717,-152.13992)"
       height="100%"
       width="100%"
       y="0"
       x="0"
       xlink:href="#Buffer_Small"
       style="fill:#000000;fill-opacity:1;stroke:none;stroke-width:2"
       id="use18706-3" />
    <path
       inkscape:connector-curvature="0"
       id="path27227-3"
       d="M 231.84029,-100.98773 119.86657,-73.437878"
       style="fill:none;stroke:#000000;stroke-width:0.26458332px;stroke-linecap:butt;stroke-linejoin:miter;stroke-opacity:1" />
    <use
       transform="rotate(165.19362,73.860007,-23.39495)"
       height="100%"
       width="100%"
       y="0"
       x="0"
       xlink:href="#Buffer_Small"
       style="fill:#000000;fill-opacity:1;stroke:none;stroke-width:2"
       id="use18706-3-6" />
    <path
       inkscape:connector-curvature="0"
       id="path27227-3-0"
       d="M 111.29149,48.665481 108.92168,163.95422"
       style="fill:none;stroke:#000000;stroke-width:0.26458332px;stroke-linecap:butt;stroke-linejoin:miter;stroke-opacity:1" />
    <use
       transform="rotate(90.19362,-12.35122,134.60055)"
       height="100%"
       width="100%"
       y="0"
       x="0"
       xlink:href="#Buffer_Small"
       style="fill:#000000;fill-opacity:1;stroke:none;stroke-width:2"
       id="use18706-3-6-6" />
    <path
       inkscape:connector-curvature="0"
       id="path27227-3-0-2"
       d="m 223.11787,205.72971 110.74702,32.12798"
       style="fill:none;stroke:#000000;stroke-width:0.26458332px;stroke-linecap:butt;stroke-linejoin:miter;stroke-opacity:1" />
    <use
       transform="rotate(15.19362,-666.88528,1314.9717)"
       height="100%"
       width="100%"
       y="0"
       x="0"
       xlink:href="#Buffer_Small"
       style="fill:#000000;fill-opacity:1;stroke:none;stroke-width:2"
       id="use18706-3-6-6-6" />
    <path
       inkscape:connector-curvature="0"
       id="path27227-3-0-2-1"
       d="M 406.80278,136.16554 466.49946,37.507459"
       style="fill:none;stroke:#000000;stroke-width:0.26458332px;stroke-linecap:butt;stroke-linejoin:miter;stroke-opacity:1" />
    <use
       transform="rotate(-59.80638,262.65389,-365.78742)"
       height="100%"
       width="100%"
       y="0"
       x="0"
       xlink:href="#Buffer_Small"
       style="fill:#000000;fill-opacity:1;stroke:none;stroke-width:2"
       id="use18706-3-6-6-6-8" />
    <circle
       style="fill:url(#radialGradient27694);fill-opacity:1;stroke:none;stroke-width:0.26458332;stroke-opacity:1"
       id="path27684"
       cx="129.42857"
       cy="-19.981657"
       r="6.9490075" />
    <use
       transform="rotate(-61.114699,17.996059,-144.29601)"
       height="100%"
       width="100%"
       y="0"
       x="0"
       xlink:href="#Buffer_Small"
       style="fill:#b000ff;fill-opacity:1;stroke:none;stroke-width:2"
       id="use18706-3-6-9"
       inkscape:transform-center-x="2.6920565"
       inkscape:transform-center-y="3.5510694" />
    <g
       id="g27791"
       transform="matrix(0.75703556,0,0,0.75703556,-35.528549,-379.18281)"
       style="fill:#b000ff;fill-opacity:1">
      <g
         id="g27789"
         transform="matrix(0.72850037,0,0,-0.72850037,-127.48757,744.79761)"
         xml:space="preserve"
         stroke-miterlimit="10.433"
         font-style="normal"
         font-variant="normal"
         font-weight="normal"
         font-stretch="normal"
         font-size-adjust="none"
         letter-spacing="normal"
         word-spacing="normal"
         style="font-style:normal;font-variant:normal;font-weight:normal;font-stretch:normal;letter-spacing:normal;word-spacing:normal;text-anchor:start;fill:#b000ff;fill-opacity:1;fill-rule:evenodd;stroke:#000000;stroke-linecap:butt;stroke-linejoin:miter;stroke-miterlimit:10.43299961;stroke-dasharray:none;stroke-dashoffset:0;stroke-opacity:1"><path
           d="m 489.75,448.64 -0.07,-0.06 -0.07,-0.07 -0.08,-0.07 -0.08,-0.07 -0.09,-0.08 -0.09,-0.08 -0.09,-0.09 -0.09,-0.09 -0.1,-0.09 -0.09,-0.09 -0.2,-0.19 -0.19,-0.19 -0.19,-0.21 -0.09,-0.1 -0.09,-0.1 -0.09,-0.1 -0.08,-0.11 -0.08,-0.1 -0.08,-0.1 -0.07,-0.1 -0.06,-0.1 -0.06,-0.1 -0.05,-0.1 -0.05,-0.1 -0.04,-0.09 -0.03,-0.1 -0.02,-0.09 -0.02,-0.09 v -0.08 c 0,-0.5 0.5,-1 1,-1 0.44,0 0.69,0.35 0.94,0.65 0.6,0.75 1.74,2.14 3.94,3.24 0.35,0.2 0.84,0.45 0.84,1.05 0,0.49 -0.34,0.74 -0.69,0.99 -1.1,0.75 -1.65,1.64 -2.05,2.84 -0.1,0.45 -0.3,1.1 -0.99,1.1 -0.7,0 -1,-0.65 -1,-1.05 0,-0.25 0.4,-1.84 1.2,-2.89 h -16.79 c -0.85,0 -1.74,0 -1.74,-0.99 0,-1 0.89,-1 1.74,-1 z"
           id="path27785"
           inkscape:connector-curvature="0"
           style="fill:#b000ff;fill-opacity:1;stroke-width:0" /><path
           d="m 471.09,422.19 h 4.84 c 3.73,0 4.13,-0.8 4.13,-2.24 0,-0.35 0,-0.95 -0.35,-2.44 -0.1,-0.25 -0.15,-0.45 -0.15,-0.55 0,-0.4 0.3,-0.6 0.6,-0.6 0.5,0 0.5,0.15 0.75,1.05 l 2.73,10.8 c 0.16,0.56 0.16,0.65 0.16,0.8 0,0.1 -0.1,0.55 -0.6,0.55 -0.5,0 -0.55,-0.25 -0.75,-1.04 -1.04,-3.89 -2.19,-4.79 -6.43,-4.79 h -4.53 l 3.19,12.66 c 0.45,1.74 0.5,1.94 2.69,1.94 h 6.58 c 6.12,0 7.27,-1.65 7.27,-5.48 0,-1.15 0,-1.35 -0.15,-2.69 -0.1,-0.65 -0.1,-0.75 -0.1,-0.9 0,-0.25 0.15,-0.6 0.6,-0.6 0.54,0 0.59,0.3 0.7,1.25 l 0.99,8.62 c 0.15,1.34 -0.1,1.34 -1.35,1.34 h -24.4 c -1,0 -1.5,0 -1.5,-0.99 0,-0.55 0.45,-0.55 1.4,-0.55 1.84,0 3.23,0 3.23,-0.9 0,-0.2 0,-0.3 -0.25,-1.19 l -6.57,-26.35 c -0.5,-1.95 -0.6,-2.35 -4.53,-2.35 -0.85,0 -1.4,0 -1.4,-0.94 0,-0.6 0.6,-0.6 0.75,-0.6 h 14 c 0.45,0 1.04,0 1.04,0.95 0,0.39 -0.29,0.5 -0.29,0.55 -0.16,0.04 -0.25,0.04 -1.4,0.04 -1.1,0 -1.35,0 -2.59,0.1 -1.44,0.15 -1.6,0.35 -1.6,1 0,0.1 0,0.4 0.2,1.15 z"
           id="path27787"
           inkscape:connector-curvature="0"
           style="fill:#b000ff;fill-opacity:1;stroke-width:0" /></g>    </g>
    <path
       inkscape:connector-curvature="0"
       id="path27878"
       d="m 129.33782,-20.305447 25.5134,-46.113096"
       style="fill:none;stroke:#b000ff;stroke-width:0.26458332px;stroke-linecap:butt;stroke-linejoin:miter;stroke-opacity:1" />
    <ellipse
       style="fill:none;fill-opacity:1;stroke:#000000;stroke-width:0.14917643;stroke-miterlimit:4;stroke-dasharray:1.79011712, 1.79011712;stroke-dashoffset:0;stroke-opacity:1"
       id="path28087"
       cx="-407.92203"
       cy="56.991974"
       rx="677.99219"
       ry="39.079067" />
  </g>
  <g
     id="g27613"
     transform="matrix(1.8513502,0,0,1.8513502,751.15891,-51.989917)">
    <g
       word-spacing="normal"
       letter-spacing="normal"
       font-size-adjust="none"
       font-stretch="normal"
       font-weight="normal"
       font-variant="normal"
       font-style="normal"
       stroke-miterlimit="10.433"
       xml:space="preserve"
       transform="matrix(0.3,0,0,-0.3,-52.5,222.75)"
       id="g27611"
       style="font-style:normal;font-variant:normal;font-weight:normal;font-stretch:normal;letter-spacing:normal;word-spacing:normal;text-anchor:start;fill:none;fill-opacity:1;fill-rule:evenodd;stroke:#000000;stroke-linecap:butt;stroke-linejoin:miter;stroke-miterlimit:10.43299961;stroke-dasharray:none;stroke-dashoffset:0;stroke-opacity:1"><path
         id="path27607"
         d="m 489.75,448.64 -0.07,-0.06 -0.07,-0.07 -0.08,-0.07 -0.08,-0.07 -0.09,-0.08 -0.09,-0.08 -0.09,-0.09 -0.09,-0.09 -0.1,-0.09 -0.09,-0.09 -0.2,-0.19 -0.19,-0.19 -0.19,-0.21 -0.09,-0.1 -0.09,-0.1 -0.09,-0.1 -0.08,-0.11 -0.08,-0.1 -0.08,-0.1 -0.07,-0.1 -0.06,-0.1 -0.06,-0.1 -0.05,-0.1 -0.05,-0.1 -0.04,-0.09 -0.03,-0.1 -0.02,-0.09 -0.02,-0.09 v -0.08 c 0,-0.5 0.5,-1 1,-1 0.44,0 0.69,0.35 0.94,0.65 0.6,0.75 1.74,2.14 3.94,3.24 0.35,0.2 0.84,0.45 0.84,1.05 0,0.49 -0.34,0.74 -0.69,0.99 -1.1,0.75 -1.65,1.64 -2.05,2.84 -0.1,0.45 -0.3,1.1 -0.99,1.1 -0.7,0 -1,-0.65 -1,-1.05 0,-0.25 0.4,-1.84 1.2,-2.89 h -16.79 c -0.85,0 -1.74,0 -1.74,-0.99 0,-1 0.89,-1 1.74,-1 z"
         inkscape:connector-curvature="0"
         style="fill:#000000;stroke-width:0" /><path
         id="path27609"
         d="m 491.27,417.61 0.01,0.02 0.01,0.02 0.02,0.05 0.02,0.05 0.02,0.06 0.02,0.05 0.02,0.05 0.02,0.05 0.02,0.05 0.01,0.02 0.01,0.03 0.01,0.02 v 0.02 l 0.01,0.03 0.01,0.02 0.01,0.02 v 0.02 l 0.01,0.02 v 0.01 l 0.01,0.02 v 0.02 0.01 0.01 l 0.01,0.01 v 0.01 c 0,0.06 0,0.55 -0.6,0.55 -0.45,0 -0.55,-0.3 -0.65,-0.6 -3.23,-7.37 -5.08,-10.71 -13.6,-10.71 h -7.27 c -0.7,0 -0.8,0 -1.1,0.05 -0.5,0.05 -0.64,0.11 -0.64,0.5 0,0.15 0,0.25 0.25,1.15 l 3.38,13.6 h 4.93 c 4.24,0 4.24,-1.05 4.24,-2.29 0,-0.35 0,-0.95 -0.35,-2.44 -0.1,-0.25 -0.15,-0.4 -0.15,-0.56 0,-0.24 0.2,-0.54 0.65,-0.54 0.4,0 0.55,0.25 0.75,0.99 l 2.84,11.66 c 0,0.3 -0.25,0.55 -0.6,0.55 -0.45,0 -0.55,-0.3 -0.7,-0.9 -1.05,-3.78 -1.94,-4.93 -6.52,-4.93 h -4.69 l 2.99,12.01 c 0.45,1.74 0.5,1.94 2.69,1.94 h 7.02 c 6.08,0 7.57,-1.45 7.57,-5.53 0,-1.19 0,-1.3 -0.19,-2.64 0,-0.3 -0.06,-0.65 -0.06,-0.9 0,-0.25 0.16,-0.6 0.6,-0.6 0.55,0 0.6,0.3 0.7,1.25 l 1,8.62 c 0.15,1.34 -0.1,1.34 -1.35,1.34 h -25.15 c -1,0 -1.5,0 -1.5,-0.99 0,-0.55 0.45,-0.55 1.4,-0.55 1.84,0 3.23,0 3.23,-0.9 0,-0.2 0,-0.3 -0.25,-1.19 l -6.57,-26.35 c -0.5,-1.95 -0.6,-2.35 -4.53,-2.35 -0.85,0 -1.4,0 -1.4,-0.94 0,-0.6 0.45,-0.6 1.4,-0.6 h 25.85 c 1.15,0 1.2,0.05 1.54,0.85 z"
         inkscape:connector-curvature="0"
         style="fill:#000000;stroke-width:0" /></g>  </g>
</svg>
